<svg xmlns="http://www.w3.org/2000/svg" viewBox="0 0 201.77 117.78" fill="#303641">
  <path d="m48.14,117.61c-2.84.03-4.81-1.06-6.51-2.75-12.95-12.9-25.92-25.77-38.81-38.72-3.81-3.82-3.73-8.39.11-12.22C23.36,43.52,43.82,23.13,64.3,2.77c3.73-3.72,8.23-3.68,11.97.04,13.03,12.95,26.06,25.93,39.05,38.92,3.63,3.62,3.87,7.97.36,11.72-4.3,4.6-8.86,8.95-13.33,13.4-.56.56-1.16,1.47-2.08.59-1.67-1.59-3.34-3.2-4.9-4.9-1.13-1.23.25-1.86.9-2.52,3.61-3.66,7.21-7.35,10.94-10.89,1.45-1.37,1.29-2.19-.05-3.51-11.8-11.67-23.55-23.38-35.26-35.14-1.25-1.26-2.01-1.28-3.28-.01C49.25,29.85,29.83,49.2,10.38,68.51c-1.24,1.23-1,1.89.09,2.98,11.86,11.76,23.71,23.53,35.47,35.38,1.5,1.51,2.27,1.09,3.49-.18,3.73-3.84,7.63-7.53,11.33-11.39,1.35-1.42,2.15-1.31,3.51.02,4.8,4.69,4.86,4.64.21,9.27-3.35,3.34-6.69,6.68-10.05,10-1.84,1.83-3.9,3.2-6.31,3.02h0Z" />
  <path d="m201.76,69.97c.09,2.49-1,4.49-2.69,6.17-13,12.98-25.99,25.99-39.08,38.9-3.79,3.73-8.3,3.61-12.05-.05-4.21-4.11-8.28-8.36-12.54-12.41-1.57-1.48-1.31-2.35.09-3.76,4.68-4.66,4.62-4.71,9.18-.16,2.75,2.74,5.57,5.43,8.23,8.25,1.26,1.33,2.08,1.57,3.52.12,11.7-11.77,23.46-23.48,35.26-35.15,1.24-1.23,1.33-1.96.03-3.25-19.45-19.31-38.88-38.66-58.24-58.06-1.47-1.47-2.12-.82-3.2.27-6.14,6.19-12.38,12.28-18.47,18.51-1.5,1.53-2.4,1.69-4,.08-4.49-4.54-4.56-4.47.05-9.07,5.8-5.78,11.59-11.58,17.41-17.34,4.03-3.99,8.41-3.99,12.42,0,20.4,20.3,40.77,40.63,61.17,60.91,1.72,1.71,2.82,3.61,2.89,6.05h0Z" />
  <path d="m118.36,92.39c-.04,1.25-.7,3.07-2.19,4.56-5.8,5.78-11.55,11.61-17.42,17.32-3.37,3.29-7.84,3.49-11.32.11-10.01-9.73-19.91-19.59-29.67-29.56-3.66-3.74-3.29-8.22.46-11.99,5.33-5.36,10.68-10.7,16.06-16,4.09-4.04,8.58-3.99,12.71.09,3.89,3.84,7.67,7.77,11.64,11.52,1.66,1.57,1.88,2.61.09,4.28-4.98,4.62-3.42,4.45-8.04,0-2.65-2.55-5.28-5.12-7.79-7.8-1.25-1.33-2.07-1.62-3.51-.12-4.28,4.47-8.69,8.83-13.15,13.12-1.35,1.3-1.14,1.99.08,3.19,8.23,8.1,16.41,16.25,24.54,24.45,1.25,1.26,2.03,1.31,3.28.02,4.25-4.37,8.54-8.69,12.95-12.89,1.58-1.51,1.28-2.43-.11-3.8-3.18-3.13-3.11-3.19-.06-6.24,1.98-1.97,3.92-2,5.83-.1,1.11,1.11,2.26,2.2,3.33,3.35,1.47,1.59,2.37,3.44,2.3,6.49h0Z" />
  <path d="m86.17,91.2c-.29-2.46,1.14-4.44,2.86-6.17,9.41-9.45,18.82-18.89,28.34-28.22,4.22-4.14,8.54-3.97,12.69.15,5.36,5.33,10.72,10.65,16.06,16.01,3.9,3.92,4,8.26.15,12.13-9.63,9.67-19.29,19.31-29,28.9-3.8,3.75-8.75,3.61-12.26-.15-.42-.45-1.01-.82-.92-1.55.16-1.3,6.09-6.1,7.41-5.78,1.14.28,1.54-.44,2.09-.98,8.19-8.14,16.35-16.31,24.57-24.43,1.24-1.22,1.35-2.07.04-3.34-4.45-4.31-8.83-8.69-13.16-13.12-1.12-1.15-1.85-1.25-3.05-.05-8.13,8.19-16.29,16.36-24.55,24.45-1.69,1.66-.9,2.56.36,3.79,3.17,3.09,3.38,2.51-.08,5.96-2.61,2.6-5.24,2.57-7.91-.09-3.02-3.01-3.65-4.3-3.64-7.53h0Z" />
</svg>